<svg width="500" height="500" viewBox="0 0 500 500" fill="none" xmlns="http://www.w3.org/2000/svg">
<line x1="287.352" y1="282.771" x2="377.629" y2="192.494" stroke="#55AB57" stroke-width="20" stroke-linecap="round"/>
<line x1="283.003" y1="193.267" x2="375.586" y2="285.85" stroke="#55AB57" stroke-width="20" stroke-linecap="round"/>
<line x1="10" y1="-10" x2="81.4014" y2="-10" transform="matrix(0.826619 0.562761 -0.304252 0.952592 385.184 251.057)" stroke="#55AB57" stroke-width="20" stroke-linecap="round"/>
<line x1="10" y1="-10" x2="83.1749" y2="-10" transform="matrix(-0.826619 0.562761 -0.304252 -0.952592 460.697 273.29)" stroke="#55AB57" stroke-width="20" stroke-linecap="round"/>
<line x1="10" y1="-10" x2="81.4014" y2="-10" transform="matrix(-0.826619 -0.562761 0.304252 -0.952592 115.554 248.668)" stroke="#55AB57" stroke-width="20" stroke-linecap="round"/>
<line x1="10" y1="-10" x2="83.1749" y2="-10" transform="matrix(0.826619 -0.562761 0.304252 0.952592 40.0413 226.435)" stroke="#55AB57" stroke-width="20" stroke-linecap="round"/>
<line x1="244.605" y1="281.898" x2="244.605" y2="186.312" stroke="#55AB57" stroke-width="20" stroke-linecap="round"/>
<line x1="148.634" y1="236.423" x2="244.22" y2="236.423" stroke="#55AB57" stroke-width="20" stroke-linecap="round"/>
<line x1="151.751" y1="282.657" x2="151.751" y2="187.071" stroke="#55AB57" stroke-width="20" stroke-linecap="round"/>
</svg>
